<svg xmlns="http://www.w3.org/2000/svg" viewBox="0 0 182.89 183.96"><defs><style>.cls-1{fill:#bcab79;}</style></defs><g id="Camada_2" data-name="Camada 2"><g id="Camada_1-2" data-name="Camada 1"><path id="Path_25" data-name="Path 25" class="cls-1" d="M0,80.45l4,4.66,20.6-17.66H41.85v46H35.72a6.14,6.14,0,0,0-6.13,6.13v12.27A6.14,6.14,0,0,0,35.72,138v46h6.13V138H48v46h6.14V138h6.13v46h6.13V138a6.14,6.14,0,0,0,6.13-6.14V119.57a6.13,6.13,0,0,0-6.13-6.13H60.25v-46a24.53,24.53,0,0,0,0-49.05H24.59L4,.74,0,5.4,20.39,22.87v7.79H17.32a12.27,12.27,0,0,0,0,24.53h3.07V63Zm66.38,39.12v12.27H35.72V119.57Zm-12.26-6.13H48v-46h6.14ZM17.32,49.05a6.13,6.13,0,0,1,0-12.26h3.07V49.05Zm9.21-24.52H60.25a18.4,18.4,0,1,1,.81,36.79H26.52Z"/><rect id="Rectangle_58" data-name="Rectangle 58" class="cls-1" x="57.33" y="33.6" width="6" height="6"/><rect id="Rectangle_59" data-name="Rectangle 59" class="cls-1" x="57.33" y="45.6" width="6" height="7"/><path id="Path_26" data-name="Path 26" class="cls-1" d="M100.11,6.13h82.78V0H100.11a9.2,9.2,0,0,0-9.2,9.2V73.58a9.2,9.2,0,0,0,9.2,9.2H136.9V95H87.84a6.15,6.15,0,0,0-6.13,6.14v6.13a6.14,6.14,0,0,0,6.13,6.13H97V184h6.13V113.44h79.72v-6.13h-95v-6.13h95V95H161.42V82.78h21.47V76.65H100.11A3.08,3.08,0,0,1,97,73.58v-9.2h85.85V58.25H97V9.2A3.08,3.08,0,0,1,100.11,6.13Zm55.18,76.65V95H143V82.78Z"/><path id="Path_27" data-name="Path 27" class="cls-1" d="M109.3,128.77V141a6.15,6.15,0,0,0,6.14,6.13H127.7v6.13a6.14,6.14,0,0,0,6.14,6.13H140V184h6.13V159.43h6.13V184h6.13V159.43h6.14a6.14,6.14,0,0,0,6.13-6.13v-6.13h12.26V141H115.44V128.77h67.45v-6.13H115.44A6.14,6.14,0,0,0,109.3,128.77Zm55.19,18.4v6.13H133.83v-6.13Z"/></g></g></svg>