<svg xmlns="http://www.w3.org/2000/svg" viewBox="0 0 175.76 135.94"><defs><style>.cls-1{fill:#bcab79;}</style></defs><g id="Camada_2" data-name="Camada 2"><g id="Camada_1-2" data-name="Camada 1"><path class="cls-1" d="M169,50.51l-3.83-4.06L151.75,10.22A15.76,15.76,0,0,0,137.07,0h-96A15.71,15.71,0,0,0,26.36,10.22L13.11,46,7.59,51.11A21.55,21.55,0,0,0,0,67.52v52.8a15.7,15.7,0,0,0,15.7,15.62h9.91a15.7,15.7,0,0,0,15.7-15.62v-7.66h93.14v7.66a15.7,15.7,0,0,0,15.7,15.62h9.91a15.7,15.7,0,0,0,15.7-15.62V66.13A21.76,21.76,0,0,0,169,50.51ZM33.42,12.77a8.14,8.14,0,0,1,7.63-5.26h96.06a8.19,8.19,0,0,1,7.62,5.26l11.72,31.54H147.7a25.76,25.76,0,0,0-51,0h-75ZM140,44.31H104.32a18.25,18.25,0,0,1,35.72,0Zm-106.24,76a8.16,8.16,0,0,1-8.19,8.11H15.7a8.16,8.16,0,0,1-8.19-8.11v-9.84a15.23,15.23,0,0,0,8.19,2.18H33.8Zm134.44,0a8.16,8.16,0,0,1-8.19,8.11h-9.91a8.2,8.2,0,0,1-8.19-8.11v-7.66h18.1a15.23,15.23,0,0,0,8.19-2.18Zm-8.19-15.17H15.7a8.1,8.1,0,0,1-8.19-8V67.52a14.11,14.11,0,0,1,5-10.74l.15-.15,5.1-4.81H160l3.6,3.87c0,.08.15.12.19.19a14.16,14.16,0,0,1,4.43,10.25v31h0a8.13,8.13,0,0,1-8.19,8Z"/><path class="cls-1" d="M49.57,66.85H21.41a3.76,3.76,0,0,0-3.76,3.75V90.13a3.76,3.76,0,0,0,3.76,3.75H49.57a3.75,3.75,0,0,0,3.75-3.75V70.6A3.75,3.75,0,0,0,49.57,66.85ZM45.82,86.37H25.16v-12H45.82Z"/><path class="cls-1" d="M154.34,66.85H126.18a3.77,3.77,0,0,0-3.76,3.75V90.13a3.77,3.77,0,0,0,3.76,3.75h28.17a3.76,3.76,0,0,0,3.75-3.75V70.6A3.76,3.76,0,0,0,154.34,66.85Zm-3.75,19.52H129.93v-12h20.66Z"/><path class="cls-1" d="M106,82.62H69.74a3.76,3.76,0,1,0,0,7.51H106a3.76,3.76,0,1,0,0-7.51Z"/><path class="cls-1" d="M106,71H69.74a3.76,3.76,0,1,0,0,7.51H106A3.76,3.76,0,1,0,106,71Z"/></g></g></svg>