<svg xmlns="http://www.w3.org/2000/svg" viewBox="0 0 177.46 140.75"><defs><style>.cls-1{fill:#bcab79;}</style></defs><g id="Camada_2" data-name="Camada 2"><g id="Camada_1-2" data-name="Camada 1"><path class="cls-1" d="M171.34,89.27V82.61h0V9.18a9.17,9.17,0,0,0-18.19-1.67H24.32A9.18,9.18,0,0,0,6.12,9.18V89.27A9.18,9.18,0,0,0,0,97.91v42.84H14.84l3.06-18.36H159.56l3.06,18.36h14.84V97.91A9.16,9.16,0,0,0,171.34,89.27Zm-159.1-.54V82.61q0-.94.09-1.86v0a18.32,18.32,0,0,1,9.41-14.19l.42-.21a18.22,18.22,0,0,1,8.43-2.07H146.87a18.19,18.19,0,0,1,8.32,2l.56.28a18.37,18.37,0,0,1,9.38,14.16v.05c.06.61.09,1.23.09,1.85v6.12ZM153,58.91a24.74,24.74,0,0,0-6.12-.78V39.5h0a12,12,0,0,0-12-12H103.75a12,12,0,0,0-12,12V58.13H85.67V39.5h0a12,12,0,0,0-12-12H42.56a12,12,0,0,0-12,12V58.13a23.3,23.3,0,0,0-6.12.79V13.51H153Zm-55.08-.78V39.5a5.87,5.87,0,0,1,5.84-5.84H134.9a5.87,5.87,0,0,1,5.85,5.84V58.13Zm-61.19,0V39.5a5.86,5.86,0,0,1,5.84-5.84H73.71a5.86,5.86,0,0,1,5.84,5.84V58.13ZM159.1,9.18a3.08,3.08,0,0,1,1-2.23,3,3,0,0,1,4.29.12,2.8,2.8,0,0,1,.88,2.11V66.37c-.08-.09-.17-.17-.25-.27-.33-.35-.66-.69-1-1l-.25-.24c-.41-.39-.83-.76-1.27-1.12l-.15-.12c-.47-.38-1-.74-1.45-1.08l-.1-.07c-.49-.34-1-.65-1.5-1l-.15-.09ZM12.24,66.36V9.18a3,3,0,0,1,5.23-2.11,2.85,2.85,0,0,1,.89,2.11V61.41c-.31.17-.59.37-.89.55l-.56.36-.71.5c-.29.21-.58.42-.86.65s-.38.3-.56.46-.59.5-.87.76l-.56.52-.69.72Zm159.1,68.27h-3.51l-3.06-18.36H12.7L9.64,134.63H6.12V97.91a3.06,3.06,0,0,1,3.06-3.06h159.1a3.06,3.06,0,0,1,3.06,3.06Z"/></g></g></svg>