<svg xmlns="http://www.w3.org/2000/svg" viewBox="0 0 160.37 160.37"><defs><style>.cls-1{fill:#bcab79;}</style></defs><g id="Camada_2" data-name="Camada 2"><g id="Camada_1-2" data-name="Camada 1"><path class="cls-1" d="M159.3,6.22a3.64,3.64,0,1,0-5.15-5.15L118.77,36.45h-75V25.51h0a3.64,3.64,0,0,0-3.65-3.64H18.22a3.64,3.64,0,0,0-3.64,3.64V36.45H3.64A3.64,3.64,0,0,0,0,40.09V62H0a3.64,3.64,0,0,0,3.65,3.65H14.58v76.54h0a3.64,3.64,0,0,0,3.64,3.64H94.77v10.93h0a3.64,3.64,0,0,0,3.64,3.64h21.87a3.64,3.64,0,0,0,3.64-3.64V145.79h10.94a3.64,3.64,0,0,0,3.64-3.64V120.28h0a3.64,3.64,0,0,0-3.64-3.65H123.92v-75ZM21.87,29.16H36.45v7.29H21.87ZM7.29,58.32V43.74H116.63v72.89H102.05V62h0c0-.12,0-.22,0-.34a2.2,2.2,0,0,0,0-.36,3,3,0,0,0-.13-.45c0-.08,0-.16-.07-.23a3.62,3.62,0,0,0-.25-.48l-.08-.15a3.45,3.45,0,0,0-1-1,1,1,0,0,0-.17-.1,3.88,3.88,0,0,0-.45-.24l-.28-.08a1.85,1.85,0,0,0-.4-.12,3.68,3.68,0,0,0-.57-.06H7.29Zm36.45,7.29H89.61L43.74,111.48Zm51,5.15v45.87H48.89Zm7.28,82.32v-7.29h14.58v7.29Zm29.16-29.16V138.5H21.87V65.61H36.45v54.66h0c0,.08,0,.15,0,.22a4.2,4.2,0,0,0,.05.51,3.27,3.27,0,0,0,.17.53.94.94,0,0,0,0,.16,3.64,3.64,0,0,0,3.15,2.2l.21,0h91.12Z"/></g></g></svg>